<?xml version='1.0' encoding='utf-8'?>
<!-- Generator: Adobe Illustrator 25.4.1, SVG Export Plug-In . SVG Version: 6.00 Build 0)  -->
<svg xmlns="http://www.w3.org/2000/svg" viewBox="0 0 79.2 151.2" enable-background="new 0 0 79.2 151.2" y="0px" xmlns:xml="http://www.w3.org/XML/1998/namespace" x="0px"  version="1.1" xml:space="preserve" id="Layer_1" height="2.1in" gorn="0" width="1.1in">
    <desc>
        <referenceFile>ESP32-S2 Rev B_schematic.svg</referenceFile>
    </desc>
    <desc >Fritzing schematic generated by brd2svg</desc>
    <g  id="schematic" gorn="0.1">
        <rect stroke-width="0.9" stroke-linejoin="round" y="14.4" x="14.4"  fill="none" stroke-linecap="round" stroke="#000000" height="122.4" width="49.95"/>
        <g  transform="matrix(1 0 0 1 32.2315 76.188)">
            <text font-size="2.8"  id="label" gorn="0.1.1.0" font-family="'DroidSans'">ESP32-S2</text>
        </g>
        <g  transform="matrix(1 0 0 1 32.8037 68.723)">
            <text font-size="2.8"  id="label_00000149370321373389650320000011303463983363531158_" gorn="0.1.2.0" font-family="'DroidSans'">Adafruit</text>
        </g>
        <g  transform="matrix(1 0 0 1 33.0753 72.3502)">
            <text font-size="2.8"  id="label_00000151532461993945052700000005366339212540003213_" gorn="0.1.3.0" font-family="'DroidSans'">Feather</text>
        </g>
        <line stroke-width="0.7" stroke-linejoin="round" y2="36" x1="0.35"  fill="none" y1="36" stroke-linecap="round" x2="14.4" stroke="#787878"/>
        <rect y="35.65" x="0"  fill="none" id="connector63pin" height="0.7" gorn="0.1.5" width="14.4"/>
        <rect y="35.65" x="0"  fill="none" id="connector63terminal" height="0.7" gorn="0.1.6" width="0"/>
        <g  transform="matrix(1 0 0 1 15.8 36.7)">
            <text font-size="2.8"  fill="#8C8C8C" id="label63" gorn="0.1.7.0" font-family="'DroidSans'">RESET</text>
        </g>
        <line stroke-width="0.7" stroke-linejoin="round" y2="43.2" x1="0.35"  fill="none" y1="43.2" stroke-linecap="round" x2="14.4" stroke="#787878"/>
        <rect y="42.85" x="0"  fill="none" id="connector59pin" height="0.7" gorn="0.1.9" width="14.4"/>
        <rect y="42.85" x="0"  fill="none" id="connector59terminal" height="0.7" gorn="0.1.10" width="0"/>
        <g  transform="matrix(1 0 0 1 15.8 43.9)">
            <text font-size="2.8"  fill="#8C8C8C" id="label59" gorn="0.1.11.0" font-family="'DroidSans'">A0</text>
        </g>
        <line stroke-width="0.7" stroke-linejoin="round" y2="50.4" x1="0.35"  fill="none" y1="50.4" stroke-linecap="round" x2="14.4" stroke="#787878"/>
        <rect y="50.05" x="0"  fill="none" id="connector58pin" height="0.7" gorn="0.1.13" width="14.4"/>
        <rect y="50.05" x="0"  fill="none" id="connector58terminal" height="0.7" gorn="0.1.14" width="0"/>
        <g  transform="matrix(1 0 0 1 15.8 51.1)">
            <text font-size="2.8"  fill="#8C8C8C" id="label58" gorn="0.1.15.0" font-family="'DroidSans'">A1</text>
        </g>
        <line stroke-width="0.7" stroke-linejoin="round" y2="57.6" x1="0.35"  fill="none" y1="57.6" stroke-linecap="round" x2="14.4" stroke="#787878"/>
        <rect y="57.25" x="0"  fill="none" id="connector57pin" height="0.7" gorn="0.1.17" width="14.4"/>
        <rect y="57.25" x="0"  fill="none" id="connector57terminal" height="0.7" gorn="0.1.18" width="0"/>
        <g  transform="matrix(1 0 0 1 15.8 58.3)">
            <text font-size="2.8"  fill="#8C8C8C" id="label57" gorn="0.1.19.0" font-family="'DroidSans'">A2</text>
        </g>
        <line stroke-width="0.7" stroke-linejoin="round" y2="64.8" x1="0.35"  fill="none" y1="64.8" stroke-linecap="round" x2="14.4" stroke="#787878"/>
        <rect y="64.45" x="0"  fill="none" id="connector56pin" height="0.7" gorn="0.1.21" width="14.4"/>
        <rect y="64.45" x="0"  fill="none" id="connector56terminal" height="0.7" gorn="0.1.22" width="0"/>
        <g  transform="matrix(1 0 0 1 15.8 65.5)">
            <text font-size="2.8"  fill="#8C8C8C" id="label56" gorn="0.1.23.0" font-family="'DroidSans'">A3</text>
        </g>
        <line stroke-width="0.7" stroke-linejoin="round" y2="72" x1="0.35"  fill="none" y1="72" stroke-linecap="round" x2="14.4" stroke="#787878"/>
        <rect y="71.65" x="0"  fill="none" id="connector55pin" height="0.7" gorn="0.1.25" width="14.4"/>
        <rect y="71.65" x="0"  fill="none" id="connector55terminal" height="0.7" gorn="0.1.26" width="0"/>
        <g  transform="matrix(1 0 0 1 15.8 72.6998)">
            <text font-size="2.8"  fill="#8C8C8C" id="label55" gorn="0.1.27.0" font-family="'DroidSans'">A4</text>
        </g>
        <line stroke-width="0.7" stroke-linejoin="round" y2="79.2" x1="0.35"  fill="none" y1="79.2" stroke-linecap="round" x2="14.4" stroke="#787878"/>
        <rect y="78.8501" x="0"  fill="none" id="connector54pin" height="0.7" gorn="0.1.29" width="14.4"/>
        <rect y="78.8501" x="0"  fill="none" id="connector54terminal" height="0.7" gorn="0.1.30" width="0"/>
        <g  transform="matrix(1 0 0 1 15.8 79.8998)">
            <text font-size="2.8"  fill="#8C8C8C" id="label54" gorn="0.1.31.0" font-family="'DroidSans'">A5</text>
        </g>
        <line stroke-width="0.7" stroke-linejoin="round" y2="86.4" x1="0.35"  fill="none" y1="86.4" stroke-linecap="round" x2="14.4" stroke="#787878"/>
        <rect y="86.0501" x="0"  fill="none" id="connector53pin" height="0.7" gorn="0.1.33" width="14.4"/>
        <rect y="86.0501" x="0"  fill="none" id="connector53terminal" height="0.7" gorn="0.1.34" width="0"/>
        <g  transform="matrix(1 0 0 1 15.8 87.0998)">
            <text font-size="2.8"  fill="#8C8C8C" id="label53" gorn="0.1.35.0" font-family="'DroidSans'">SCK</text>
        </g>
        <line stroke-width="0.7" stroke-linejoin="round" y2="93.6" x1="0.35"  fill="none" y1="93.6" stroke-linecap="round" x2="14.4" stroke="#787878"/>
        <rect y="93.2501" x="0"  fill="none" id="connector52pin" height="0.7" gorn="0.1.37" width="14.4"/>
        <rect y="93.2501" x="0"  fill="none" id="connector52terminal" height="0.7" gorn="0.1.38" width="0"/>
        <g  transform="matrix(1 0 0 1 15.8 94.2998)">
            <text font-size="2.8"  fill="#8C8C8C" id="label52" gorn="0.1.39.0" font-family="'DroidSans'">MOSI</text>
        </g>
        <line stroke-width="0.7" stroke-linejoin="round" y2="100.8" x1="0.35"  fill="none" y1="100.8" stroke-linecap="round" x2="14.4" stroke="#787878"/>
        <rect y="100.45" x="0"  fill="none" id="connector51pin" height="0.7" gorn="0.1.41" width="14.4"/>
        <rect y="100.45" x="0"  fill="none" id="connector51terminal" height="0.7" gorn="0.1.42" width="0"/>
        <g  transform="matrix(1 0 0 1 15.8 101.5)">
            <text font-size="2.8"  fill="#8C8C8C" id="label51" gorn="0.1.43.0" font-family="'DroidSans'">MISO</text>
        </g>
        <line stroke-width="0.7" stroke-linejoin="round" y2="108" x1="0.35"  fill="none" y1="108" stroke-linecap="round" x2="14.4" stroke="#787878"/>
        <rect y="107.65" x="0"  fill="none" id="connector50pin" height="0.7" gorn="0.1.45" width="14.4"/>
        <rect y="107.65" x="0"  fill="none" id="connector50terminal" height="0.7" gorn="0.1.46" width="0"/>
        <g  transform="matrix(1 0 0 1 15.8 108.7)">
            <text font-size="2.8"  fill="#8C8C8C" id="label50" gorn="0.1.47.0" font-family="'DroidSans'">RX</text>
        </g>
        <line stroke-width="0.7" stroke-linejoin="round" y2="115.2" x1="0.35"  fill="none" y1="115.2" stroke-linecap="round" x2="14.4" stroke="#787878"/>
        <rect y="114.85" x="0"  fill="none" id="connector49pin" height="0.7" gorn="0.1.49" width="14.4"/>
        <rect y="114.85" x="0"  fill="none" id="connector49terminal" height="0.7" gorn="0.1.50" width="0"/>
        <g  transform="matrix(1 0 0 1 15.8 115.9)">
            <text font-size="2.8"  fill="#8C8C8C" id="label49" gorn="0.1.51.0" font-family="'DroidSans'">TX</text>
        </g>
        <line stroke-width="0.7" stroke-linejoin="round" y2="122.4" x1="0.35"  fill="none" y1="122.4" stroke-linecap="round" x2="14.4" stroke="#787878"/>
        <rect y="122.05" x="0"  fill="none" id="connector48pin" height="0.7" gorn="0.1.53" width="14.4"/>
        <rect y="122.05" x="0"  fill="none" id="connector48terminal" height="0.7" gorn="0.1.54" width="0"/>
        <g  transform="matrix(1 0 0 1 15.8 123.1)">
            <text font-size="2.8"  fill="#8C8C8C" id="label48" gorn="0.1.55.0" font-family="'DroidSans'">TXD0</text>
        </g>
        <line stroke-width="0.7" stroke-linejoin="round" y2="36" x1="64.45"  fill="none" y1="36" stroke-linecap="round" x2="78.8501" stroke="#787878"/>
        <rect y="35.65" x="64.8"  fill="none" id="connector65pin" height="0.7" gorn="0.1.57" width="14.4"/>
        <rect y="35.65" x="79.2"  fill="none" id="connector65terminal" height="0.7" gorn="0.1.58" width="0"/>
        <g  transform="matrix(1 0 0 1 59.0011 36.7)">
            <text font-size="2.8"  fill="#8C8C8C" id="label65" gorn="0.1.59.0" font-family="'DroidSans'">EN</text>
        </g>
        <line stroke-width="0.7" stroke-linejoin="round" y2="43.2" x1="64.45"  fill="none" y1="43.2" stroke-linecap="round" x2="78.8501" stroke="#787878"/>
        <rect y="42.85" x="64.8"  fill="none" id="connector67pin" height="0.7" gorn="0.1.61" width="14.4"/>
        <rect y="42.85" x="79.2"  fill="none" id="connector67terminal" height="0.7" gorn="0.1.62" width="0"/>
        <g  transform="matrix(1 0 0 1 57.1502 43.9)">
            <text font-size="2.8"  fill="#8C8C8C" id="label67" gorn="0.1.63.0" font-family="'DroidSans'">D13</text>
        </g>
        <line stroke-width="0.7" stroke-linejoin="round" y2="50.4" x1="64.45"  fill="none" y1="50.4" stroke-linecap="round" x2="78.8501" stroke="#787878"/>
        <rect y="50.05" x="64.8"  fill="none" id="connector68pin" height="0.7" gorn="0.1.65" width="14.4"/>
        <rect y="50.05" x="79.2"  fill="none" id="connector68terminal" height="0.7" gorn="0.1.66" width="0"/>
        <g  transform="matrix(1 0 0 1 57.1502 51.1)">
            <text font-size="2.8"  fill="#8C8C8C" id="label68" gorn="0.1.67.0" font-family="'DroidSans'">D12</text>
        </g>
        <line stroke-width="0.7" stroke-linejoin="round" y2="57.6" x1="64.45"  fill="none" y1="57.6" stroke-linecap="round" x2="78.8501" stroke="#787878"/>
        <rect y="57.25" x="64.8"  fill="none" id="connector69pin" height="0.7" gorn="0.1.69" width="14.4"/>
        <rect y="57.25" x="79.2"  fill="none" id="connector69terminal" height="0.7" gorn="0.1.70" width="0"/>
        <g  transform="matrix(1 0 0 1 57.1502 58.3)">
            <text font-size="2.8"  fill="#8C8C8C" id="label69" gorn="0.1.71.0" font-family="'DroidSans'">D11</text>
        </g>
        <line stroke-width="0.7" stroke-linejoin="round" y2="64.8" x1="64.45"  fill="none" y1="64.8" stroke-linecap="round" x2="78.8501" stroke="#787878"/>
        <rect y="64.45" x="64.8"  fill="none" id="connector70pin" height="0.7" gorn="0.1.73" width="14.4"/>
        <rect y="64.45" x="79.2"  fill="none" id="connector70terminal" height="0.7" gorn="0.1.74" width="0"/>
        <g  transform="matrix(1 0 0 1 57.1502 65.5)">
            <text font-size="2.8"  fill="#8C8C8C" id="label70" gorn="0.1.75.0" font-family="'DroidSans'">D10</text>
        </g>
        <line stroke-width="0.7" stroke-linejoin="round" y2="72" x1="64.45"  fill="none" y1="72" stroke-linecap="round" x2="78.8501" stroke="#787878"/>
        <rect y="71.65" x="64.8"  fill="none" id="connector71pin" height="0.7" gorn="0.1.77" width="14.4"/>
        <rect y="71.65" x="79.2"  fill="none" id="connector71terminal" height="0.7" gorn="0.1.78" width="0"/>
        <g  transform="matrix(1 0 0 1 59.078 72.6998)">
            <text font-size="2.8"  fill="#8C8C8C" id="label71" gorn="0.1.79.0" font-family="'DroidSans'">D9</text>
        </g>
        <line stroke-width="0.7" stroke-linejoin="round" y2="79.2" x1="64.45"  fill="none" y1="79.2" stroke-linecap="round" x2="78.8501" stroke="#787878"/>
        <rect y="78.8501" x="64.8"  fill="none" id="connector72pin" height="0.7" gorn="0.1.81" width="14.4"/>
        <rect y="78.8501" x="79.2"  fill="none" id="connector72terminal" height="0.7" gorn="0.1.82" width="0"/>
        <g  transform="matrix(1 0 0 1 59.078 79.8998)">
            <text font-size="2.8"  fill="#8C8C8C" id="label72" gorn="0.1.83.0" font-family="'DroidSans'">D6</text>
        </g>
        <line stroke-width="0.7" stroke-linejoin="round" y2="86.4" x1="64.45"  fill="none" y1="86.4" stroke-linecap="round" x2="78.8501" stroke="#787878"/>
        <rect y="86.0501" x="64.8"  fill="none" id="connector73pin" height="0.7" gorn="0.1.85" width="14.4"/>
        <rect y="86.0501" x="79.2"  fill="none" id="connector73terminal" height="0.7" gorn="0.1.86" width="0"/>
        <g  transform="matrix(1 0 0 1 59.078 87.0998)">
            <text font-size="2.8"  fill="#8C8C8C" id="label73" gorn="0.1.87.0" font-family="'DroidSans'">D5</text>
        </g>
        <line stroke-width="0.7" stroke-linejoin="round" y2="93.6" x1="64.45"  fill="none" y1="93.6" stroke-linecap="round" x2="78.8501" stroke="#787878"/>
        <rect y="93.2501" x="64.8"  fill="none" id="connector32pin" height="0.7" gorn="0.1.89" width="14.4"/>
        <rect y="93.2501" x="79.2"  fill="none" id="connector32terminal" height="0.7" gorn="0.1.90" width="0"/>
        <g  transform="matrix(1 0 0 1 57.7535 94.2998)">
            <text font-size="2.8"  fill="#8C8C8C" id="label32" gorn="0.1.91.0" font-family="'DroidSans'">SCL</text>
        </g>
        <line stroke-width="0.7" stroke-linejoin="round" y2="100.8" x1="64.45"  fill="none" y1="100.8" stroke-linecap="round" x2="78.8501" stroke="#787878"/>
        <rect y="100.45" x="64.8"  fill="none" id="connector31pin" height="0.7" gorn="0.1.93" width="14.4"/>
        <rect y="100.45" x="79.2"  fill="none" id="connector31terminal" height="0.7" gorn="0.1.94" width="0"/>
        <g  transform="matrix(1 0 0 1 57.0956 101.5)">
            <g enable-background="new    "  id="label31" gorn="0.1.95.0">
                <text font-size="2.8" y="0" x="0"  fill="#8C8C8C" font-family="'DroidSans'">S</text>
                <text font-size="2.8" y="0" x="1.8164"  fill="#8C8C8C" font-family="'DroidSans'">D</text>
                <text font-size="2.8" y="0" x="4.1768"  fill="#8C8C8C" font-family="'DroidSans'">A</text>
            </g>
        </g>
        <line stroke-width="0.7" stroke-linejoin="round" y2="14.4" x1="21.6"  fill="none" y1="0.35" stroke-linecap="round" x2="21.6" stroke="#787878"/>
        <rect y="0" x="21.25"  fill="none" id="connector61pin" height="14.4" gorn="0.1.97" width="0.7"/>
        <polygon  fill="none" id="connector61terminal" points="21.25,0 21.95,0 21.95,0 " gorn="0.1.98"/>
        <g  transform="matrix(1, 0, 0, 1, 23, 16)">
            <g >
                <g  transform="rotate(270)">
                    <g >
                        <g  transform="matrix(1 0 0 1 -6.7817 0)">
                            <text font-size="2.8"  fill="#8C8C8C" id="label61" gorn="0.1.99.0.0.0.0.0" font-family="'DroidSans'">3.3V</text>
                        </g>
                    </g>
                </g>
            </g>
        </g>
        <line stroke-width="0.7" stroke-linejoin="round" y2="14.4" x1="28.8"  fill="none" y1="0.35" stroke-linecap="round" x2="28.8" stroke="#787878"/>
        <rect y="0" x="28.45"  fill="none" id="connector64pin" height="14.4" gorn="0.1.101" width="0.7"/>
        <polygon  fill="none" id="connector64terminal" points="28.45,0 29.15,0 29.15,0 " gorn="0.1.102"/>
        <g  transform="matrix(1, 0, 0, 1, 30.2, 16)">
            <g >
                <g  transform="rotate(270)">
                    <g >
                        <g  transform="matrix(1 0 0 1 -7.8959 0)">
                            <g enable-background="new    "  id="label64" gorn="0.1.103.0.0.0.0.0">
                                <text font-size="2.8" y="0" x="0"  fill="#8C8C8C" font-family="'DroidSans'">VB</text>
                                <text font-size="2.8" y="0" x="4.1611"  fill="#8C8C8C" font-family="'DroidSans'">A</text>
                                <text font-size="2.8" y="0" x="6.0791"  fill="#8C8C8C" font-family="'DroidSans'">T</text>
                            </g>
                        </g>
                    </g>
                </g>
            </g>
        </g>
        <line stroke-width="0.7" stroke-linejoin="round" y2="14.4" x1="36"  fill="none" y1="0.35" stroke-linecap="round" x2="36" stroke="#787878"/>
        <rect y="0" x="35.65"  fill="none" id="connector66pin" height="14.4" gorn="0.1.105" width="0.7"/>
        <polygon  fill="none" id="connector66terminal" points="35.65,0 36.35,0 36.35,0 " gorn="0.1.106"/>
        <g  transform="matrix(1, 0, 0, 1, 37.4, 16)">
            <g >
                <g  transform="rotate(270)">
                    <g >
                        <g  transform="matrix(1 0 0 1 -8.4223 0)">
                            <text font-size="2.8"  fill="#8C8C8C" id="label66" gorn="0.1.107.0.0.0.0.0" font-family="'DroidSans'">VBUS</text>
                        </g>
                    </g>
                </g>
            </g>
        </g>
        <line stroke-width="0.7" stroke-linejoin="round" y2="14.4" x1="43.2"  fill="none" y1="0.35" stroke-linecap="round" x2="43.2" stroke="#787878"/>
        <rect y="0" x="42.85"  fill="none" id="connector30pin" height="14.4" gorn="0.1.109" width="0.7"/>
        <polygon  fill="none" id="connector30terminal" points="42.85,0 43.55,0 43.55,0 " gorn="0.1.110"/>
        <g  transform="matrix(1, 0, 0, 1, 44.6, 16)">
            <g >
                <g  transform="rotate(270)">
                    <g >
                        <g  transform="matrix(1 0 0 1 -14.6821 0)">
                            <text font-size="2.8"  fill="#8C8C8C" id="label30" gorn="0.1.111.0.0.0.0.0" font-family="'DroidSans'">VSENSOR</text>
                        </g>
                    </g>
                </g>
            </g>
        </g>
        <line stroke-width="0.7" stroke-linejoin="round" y2="150.85" x1="36"  fill="none" y1="136.8" stroke-linecap="round" x2="36" stroke="#787878"/>
        <rect y="136.8" x="35.65"  fill="none" id="connector29pin" height="14.4" gorn="0.1.113" width="0.7"/>
        <polygon  fill="none" id="connector29terminal" points="35.65,151.2 36.35,151.2 36.35,151.2 " gorn="0.1.114"/>
        <g  transform="matrix(1, 0, 0, 1, 37.4, 135.2)">
            <g >
                <g  transform="rotate(270)">
                    <g >
                        <g  transform="matrix(1 0 0 1 -0.0006 0)">
                            <text font-size="2.8"  fill="#8C8C8C" id="label29" gorn="0.1.115.0.0.0.0.0" font-family="'DroidSans'">GND</text>
                        </g>
                    </g>
                </g>
            </g>
        </g>
        <rect y="0" x="21.25"  fill="none" id="connector62pin" height="14.4" gorn="0.1.116" width="0.7"/>
        <polygon  fill="none" id="connector62terminal" points="21.25,0 21.95,0 21.95,0 " gorn="0.1.117"/>
        <rect y="0" x="28.45"  fill="none" id="connector214pin" height="14.4" gorn="0.1.118" width="0.7"/>
        <polygon  fill="none" id="connector214terminal" points="28.45,0 29.15,0 29.15,0 " gorn="0.1.119"/>
        <rect y="136.8" x="35.65"  fill="none" id="connector60pin" height="14.4" gorn="0.1.120" width="0.7"/>
        <polygon  fill="none" id="connector60terminal" points="35.65,151.2 36.35,151.2 36.35,151.2 " gorn="0.1.121"/>
        <rect y="136.8" x="35.65"  fill="none" id="connector213pin" height="14.4" gorn="0.1.122" width="0.7"/>
        <polygon  fill="none" id="connector213terminal" points="35.65,151.2 36.35,151.2 36.35,151.2 " gorn="0.1.123"/>
        <rect y="93.2501" x="64.8"  fill="none" id="connector74pin" height="0.7" gorn="0.1.124" width="14.4"/>
        <rect y="93.2501" x="79.2"  fill="none" id="connector74terminal" height="0.7" gorn="0.1.125" width="0"/>
        <rect y="100.45" x="64.8"  fill="none" id="connector75pin" height="0.7" gorn="0.1.126" width="14.4"/>
        <rect y="100.45" x="79.2"  fill="none" id="connector75terminal" height="0.7" gorn="0.1.127" width="0"/>
    </g>
</svg>
