<?xml version='1.0' encoding='UTF-8' standalone='no'?>
<!-- Created with Fritzing (http://www.fritzing.org/) -->
<svg xmlns="http://www.w3.org/2000/svg" viewBox="0 0 147.24 64.8" y="0in" x="0in"  version="1.2" baseProfile="tiny" height="0.9in" width="2.045in">
    <desc>
        <referenceFile>ESP32-S2 Rev B_pcb.svg</referenceFile>
    </desc>
    <desc >Fritzing footprint generated by brd2svg</desc>
    <g  id="silkscreen" gorn="0.1">
        <path stroke-width="0.576"  fill="none" stroke="white" d="M10.6872,64.512A6.912,6.912,0,0,1,3.51533,57.376L3.51533,7.42399A6.912,6.912,0,0,1,10.6872,0.288L139.78,0.288A6.912,6.912,0,0,1,146.952,7.42399L146.952,57.376A6.912,6.912,0,0,1,139.78,64.512L10.6872,64.512M17.1683,40.5922a0.63326,0.63326,0,1,0,1.26652,0,0.63326,0.63326,0,1,0,-1.26652,0zM17.1683,24.2078a0.63326,0.63326,0,1,0,1.26652,0,0.63326,0.63326,0,1,0,-1.26652,0zM137.21,59.58a2.83011,2.83011,0,1,0,5.66022,0,2.83011,2.83011,0,1,0,-5.66022,0zM137.21,5.4a2.83011,2.83011,0,1,0,5.66022,0,2.83011,2.83011,0,1,0,-5.66022,0z"/>
        <g >
            <title >element:JP1</title>
            <g >
                <title >package:1X16_ROUND</title>
            </g>
        </g>
        <g >
            <title >element:JP3</title>
            <g >
                <title >package:1X12_ROUND</title>
            </g>
        </g>
        <g >
            <title >element:U$15</title>
            <g >
                <title >package:FEATHERLOGO_MED</title>
            </g>
        </g>
        <g >
            <title >element:U1</title>
            <g >
                <title >package:QFN60_ESP32-S2-MINI-1_EXP</title>
                <line stroke-width="0.432" y2="54.576" x1="89.784"  y1="10.224" stroke-linecap="round" x2="89.784" stroke="white"/>
                <line stroke-width="0.432" y2="54.576" x1="89.784"  y1="54.576" stroke-linecap="round" x2="147.168" stroke="white"/>
                <line stroke-width="0.432" y2="10.224" x1="147.168"  y1="54.576" stroke-linecap="round" x2="147.168" stroke="white"/>
                <line stroke-width="0.432" y2="10.224" x1="147.168"  y1="10.224" stroke-linecap="round" x2="89.784" stroke="white"/>
            </g>
        </g>
        <g >
            <title >element:X1</title>
            <g >
                <title >package:JSTPH2_BATT</title>
                <line stroke-width="0.576" y2="1.39607" x1="27.822"  y1="1.39607" stroke-linecap="round" x2="40.578" stroke="white"/>
                <line stroke-width="0.576" y2="22.6559" x1="45.5386"  y1="11.3173" stroke-linecap="round" x2="45.5386" stroke="white"/>
                <line stroke-width="0.576" y2="22.6559" x1="45.5386"  y1="22.6559" stroke-linecap="round" x2="43.1292" stroke="white"/>
                <line stroke-width="0.576" y2="15.5693" x1="43.1292"  y1="22.6559" stroke-linecap="round" x2="43.1292" stroke="white"/>
                <line stroke-width="0.576" y2="15.5693" x1="43.1292"  y1="15.5693" stroke-linecap="round" x2="39.1607" stroke="white"/>
                <line stroke-width="0.576" y2="15.5693" x1="29.2393"  y1="15.5693" stroke-linecap="round" x2="25.2708" stroke="white"/>
                <line stroke-width="0.576" y2="22.6559" x1="25.2708"  y1="15.5693" stroke-linecap="round" x2="25.2708" stroke="white"/>
                <line stroke-width="0.576" y2="22.6559" x1="25.2708"  y1="22.6559" stroke-linecap="round" x2="22.8614" stroke="white"/>
                <line stroke-width="0.576" y2="11.3173" x1="22.8614"  y1="22.6559" stroke-linecap="round" x2="22.8614" stroke="white"/>
                <line stroke-width="0.864" y2="19.98" x1="39.6"  y1="19.98" stroke-linecap="round" x2="42.12" stroke="white"/>
                <line stroke-width="0.864" y2="18.72" x1="40.86"  y1="21.42" stroke-linecap="round" x2="40.86" stroke="white"/>
                <line stroke-width="0.864" y2="19.98" x1="26.28"  y1="19.98" stroke-linecap="round" x2="28.8" stroke="white"/>
            </g>
        </g>
        <g >
            <title >element:X3</title>
            <g >
                <title >package:USB_C_CUSB31-CFM2AX-01-X</title>
                <line stroke-width="0.288" y2="19.7292" x1="11.3386"  y1="19.7292" stroke-linecap="round" x2="15.1654" stroke="white"/>
                <line stroke-width="0.288" y2="45.0708" x1="15.1654"  y1="45.0708" stroke-linecap="round" x2="11.3386" stroke="white"/>
                <line stroke-width="0.288" y2="19.7292" x1="0"  y1="45.0708" stroke-linecap="round" x2="0" stroke="white"/>
                <line stroke-width="0.288" y2="19.7292" x1="0"  y1="19.7292" stroke-linecap="round" x2="3.82677" stroke="white"/>
                <line stroke-width="0.288" y2="45.0708" x1="3.82677"  y1="45.0708" stroke-linecap="round" x2="0" stroke="white"/>
            </g>
        </g>
        <line stroke-width="0.576" y2="46.044" x1="0.288"  fill="none" y1="46.044" fill-opacity="1" x2="3.24" stroke="white"/>
        <line stroke-width="0.576" y2="18.72" x1="0.288"  fill="none" y1="18.72" fill-opacity="1" x2="3.24" stroke="white"/>
        <line stroke-width="0.576" y2="18.72" x1="0.288"  fill="none" y1="46.044" fill-opacity="1" x2="0.288" stroke="white"/>
    </g>
    <g  id="copper1" gorn="0.2">
        <g  id="copper0" gorn="0.2.0">
            <circle stroke-width="0.72" connectorname="M2" cx="19.2189"  fill="none" cy="44.6457" r="1.21039" stroke="#F7BD13" id="connector230pad" gorn="0.2.0.0"/>
            <path stroke-width="0"  fill="#F7BD13" stroke="none" d="m16.435,43.4353,5.56781,0,0,2.42078,-5.56781,0,0,-2.42078M18.0085,44.6457a1.21039,1.21039,0,1,0,2.42078,0,1.21039,1.21039,0,1,0,-2.42078,0z"/>
            <rect stroke-width="0" y="13.8685" x="35.6173"  fill="#F7BD13" stroke="none" id="connector214pad" height="13.0393" gorn="0.2.0.2" width="2.83465"/>
            <g  transform="matrix(-1, 0, 0, -1, 144.199, 73.3039)">
                <g >
                    <rect stroke-width="0" y="35.8016" x="69.9024"  fill="#F7BD13" stroke="none" id="connector29pad" height="1.70078" gorn="0.2.0.3.0.0" width="4.3937"/>
                </g>
            </g>
            <g  transform="matrix(-1, 0, 0, -1, 144.199, 67.6346)">
                <g >
                    <rect stroke-width="0" y="32.9669" x="69.9024"  fill="#F7BD13" stroke="none" id="connector30pad" height="1.70078" gorn="0.2.0.4.0.0" width="4.3937"/>
                </g>
            </g>
            <g  transform="matrix(-1, 0, 0, -1, 144.199, 61.9654)">
                <g >
                    <rect stroke-width="0" y="30.1323" x="69.9024"  fill="#F7BD13" stroke="none" id="connector31pad" height="1.70078" gorn="0.2.0.5.0.0" width="4.3937"/>
                </g>
            </g>
            <g  transform="matrix(-1, 0, 0, -1, 144.199, 56.2961)">
                <g >
                    <rect stroke-width="0" y="27.2976" x="69.9024"  fill="#F7BD13" stroke="none" id="connector32pad" height="1.70078" gorn="0.2.0.6.0.0" width="4.3937"/>
                </g>
            </g>
            <circle stroke-width="0.95868" connectorname="TXD0" cx="129.24"  fill="none" cy="61.2" r="1.89666" stroke="#F7BD13" id="connector48pad" gorn="0.2.0.7"/>
            <circle stroke-width="0.95868" connectorname="TX" cx="122.04"  fill="none" cy="61.2" r="1.89666" stroke="#F7BD13" id="connector49pad" gorn="0.2.0.8"/>
            <circle stroke-width="0.95868" connectorname="RX" cx="114.84"  fill="none" cy="61.2" r="1.89666" stroke="#F7BD13" id="connector50pad" gorn="0.2.0.9"/>
            <circle stroke-width="0.95868" connectorname="MISO" cx="107.64"  fill="none" cy="61.2" r="1.89666" stroke="#F7BD13" id="connector51pad" gorn="0.2.0.10"/>
            <circle stroke-width="0.95868" connectorname="MOSI" cx="100.44"  fill="none" cy="61.2" r="1.89666" stroke="#F7BD13" id="connector52pad" gorn="0.2.0.11"/>
            <circle stroke-width="0.95868" connectorname="SCK" cx="93.24"  fill="none" cy="61.2" r="1.89666" stroke="#F7BD13" id="connector53pad" gorn="0.2.0.12"/>
            <circle stroke-width="0.95868" connectorname="A5" cx="86.04"  fill="none" cy="61.2" r="1.89666" stroke="#F7BD13" id="connector54pad" gorn="0.2.0.13"/>
            <circle stroke-width="0.95868" connectorname="A4" cx="78.84"  fill="none" cy="61.2" r="1.89666" stroke="#F7BD13" id="connector55pad" gorn="0.2.0.14"/>
            <circle stroke-width="0.95868" connectorname="A3" cx="71.64"  fill="none" cy="61.2" r="1.89666" stroke="#F7BD13" id="connector56pad" gorn="0.2.0.15"/>
            <circle stroke-width="0.95868" connectorname="A2" cx="64.44"  fill="none" cy="61.2" r="1.89666" stroke="#F7BD13" id="connector57pad" gorn="0.2.0.16"/>
            <circle stroke-width="0.95868" connectorname="A1" cx="57.24"  fill="none" cy="61.2" r="1.89666" stroke="#F7BD13" id="connector58pad" gorn="0.2.0.17"/>
            <circle stroke-width="0.95868" connectorname="A0" cx="50.04"  fill="none" cy="61.2" r="1.89666" stroke="#F7BD13" id="connector59pad" gorn="0.2.0.18"/>
            <circle stroke-width="0.95868" connectorname="GND" cx="42.84"  fill="none" cy="61.2" r="1.89666" stroke="#F7BD13" id="connector60pad" gorn="0.2.0.19"/>
            <circle stroke-width="0.95868" connectorname="3.3V" cx="35.64"  fill="none" cy="61.2" r="1.89666" stroke="#F7BD13" id="connector61pad" gorn="0.2.0.20"/>
            <circle stroke-width="0.72" connectorname="M4" cx="7.37006"  fill="none" cy="44.6457" r="1.21039" stroke="#F7BD13" id="connector232pad" gorn="0.2.0.21"/>
            <path stroke-width="0"  fill="#F7BD13" stroke="none" d="m4.58618,43.4353,5.56781,0,0,2.42078,-5.56781,0,0,-2.42078M6.15969,44.6457a1.21039,1.21039,0,1,0,2.42078,0,1.21039,1.21039,0,1,0,-2.42078,0z"/>
            <circle stroke-width="0.95868" connectorname="3.3V" cx="28.44"  fill="none" cy="61.2" r="1.89666" stroke="#F7BD13" id="connector62pad" gorn="0.2.0.23"/>
            <circle stroke-width="0.95868" connectorname="RESET" cx="21.24"  fill="none" cy="61.2" r="1.89666" stroke="#F7BD13" id="connector63pad" gorn="0.2.0.24"/>
            <circle stroke-width="0.95868" connectorname="VBAT" cx="50.04"  fill="none" cy="3.6" r="1.89666" stroke="#F7BD13" id="connector64pad" gorn="0.2.0.25"/>
            <circle stroke-width="0.95868" connectorname="EN" cx="57.24"  fill="none" cy="3.6" r="1.89666" stroke="#F7BD13" id="connector65pad" gorn="0.2.0.26"/>
            <circle stroke-width="0.95868" connectorname="VBUS" cx="64.44"  fill="none" cy="3.6" r="1.89666" stroke="#F7BD13" id="connector66pad" gorn="0.2.0.27"/>
            <circle stroke-width="0.95868" connectorname="D13" cx="71.64"  fill="none" cy="3.6" r="1.89666" stroke="#F7BD13" id="connector67pad" gorn="0.2.0.28"/>
            <circle stroke-width="0.95868" connectorname="D12" cx="78.84"  fill="none" cy="3.6" r="1.89666" stroke="#F7BD13" id="connector68pad" gorn="0.2.0.29"/>
            <circle stroke-width="0.95868" connectorname="D11" cx="86.04"  fill="none" cy="3.6" r="1.89666" stroke="#F7BD13" id="connector69pad" gorn="0.2.0.30"/>
            <circle stroke-width="0.95868" connectorname="D10" cx="93.24"  fill="none" cy="3.6" r="1.89666" stroke="#F7BD13" id="connector70pad" gorn="0.2.0.31"/>
            <circle stroke-width="0.95868" connectorname="D9" cx="100.44"  fill="none" cy="3.6" r="1.89666" stroke="#F7BD13" id="connector71pad" gorn="0.2.0.32"/>
            <circle stroke-width="0.95868" connectorname="D6" cx="107.64"  fill="none" cy="3.6" r="1.89666" stroke="#F7BD13" id="connector72pad" gorn="0.2.0.33"/>
            <circle stroke-width="0.95868" connectorname="D5" cx="114.84"  fill="none" cy="3.6" r="1.89666" stroke="#F7BD13" id="connector73pad" gorn="0.2.0.34"/>
            <circle stroke-width="0.95868" connectorname="SCL" cx="122.04"  fill="none" cy="3.6" r="1.89666" stroke="#F7BD13" id="connector74pad" gorn="0.2.0.35"/>
            <circle stroke-width="0.95868" connectorname="SDA" cx="129.24"  fill="none" cy="3.6" r="1.89666" stroke="#F7BD13" id="connector75pad" gorn="0.2.0.36"/>
            <rect stroke-width="0" y="13.8685" x="29.948"  fill="#F7BD13" stroke="none" id="connector213pad" height="13.0393" gorn="0.2.0.37" width="2.83465"/>
            <circle stroke-width="0.72" connectorname="M1" cx="19.2189"  fill="none" cy="20.1543" r="1.21039" stroke="#F7BD13" id="connector229pad" gorn="0.2.0.38"/>
            <path stroke-width="0"  fill="#F7BD13" stroke="none" d="m16.435,18.9439,5.56781,0,0,2.42078,-5.56781,0,0,-2.42078M18.0085,20.1543a1.21039,1.21039,0,1,0,2.42078,0,1.21039,1.21039,0,1,0,-2.42078,0z"/>
            <circle stroke-width="0.72" connectorname="M3" cx="7.37006"  fill="none" cy="20.1543" r="1.21039" stroke="#F7BD13" id="connector231pad" gorn="0.2.0.40"/>
            <path stroke-width="0"  fill="#F7BD13" stroke="none" d="m4.58618,18.9439,5.56781,0,0,2.42078,-5.56781,0,0,-2.42078M6.15969,20.1543a1.21039,1.21039,0,1,0,2.42078,0,1.21039,1.21039,0,1,0,-2.42078,0z"/>
            <circle stroke-width="1.44" connectorname="P$1" cx="10.44"  fill="none" cy="7.2" r="4.26331" stroke="#F7BD13" id="connector118pad" gorn="0.2.0.42"/>
            <circle stroke-width="1.44" connectorname="P$1" cx="10.44"  fill="none" cy="57.6" r="4.26331" stroke="#F7BD13" id="connector119pad" gorn="0.2.0.43"/>
        </g>
    </g>
</svg>
