<svg width="800" height="600" xmlns="http://www.w3.org/2000/svg">
    <defs>
      <style>
        .board { fill: #f8fafc; stroke: #e2e8f0; stroke-width: 2; }
        .board-title { font-family: Arial, sans-serif; font-size: 14px; font-weight: bold; text-anchor: middle; }
        .pin { fill: #3b82f6; stroke: #1e40af; stroke-width: 1; }
        .pin-label { font-family: Arial, sans-serif; font-size: 10px; text-anchor: middle; }
        .wire { stroke: #ef4444; stroke-width: 2; fill: none; }
        .connection-label { font-family: Arial, sans-serif; font-size: 8px; text-anchor: middle; fill: #374151; }
      </style>
    </defs>
    
    <!-- Background -->
    <rect width="800" height="600" fill="#ffffff"/>
    
    <!-- Sensor Board -->
    <rect x="50" y="50" width="120" height="80" class="board" rx="8"/>
    <text x="110" y="70" class="board-title">BME280 SPI Module</text>
    <text x="110" y="85" class="board-title" style="font-size: 10px; font-weight: normal;"></text>
    
    <!-- Microcontroller Board -->
    <rect x="250" y="50" width="120" height="80" class="board" rx="8"/>
    <text x="310" y="70" class="board-title">Arduino Uno (Rev3)</text>
    <text x="310" y="85" class="board-title" style="font-size: 10px; font-weight: normal;">Arduino</text><circle cx="47" cy="70" r="3" class="pin" data-pin-id="1266"/>
              <text x="39" y="73" class="pin-label" text-anchor="end">VCC</text><circle cx="47" cy="78" r="3" class="pin" data-pin-id="1270"/>
              <text x="39" y="81" class="pin-label" text-anchor="end">GND</text><circle cx="47" cy="86" r="3" class="pin" data-pin-id="1271"/>
              <text x="39" y="89" class="pin-label" text-anchor="end">SCL</text><circle cx="173" cy="70" r="3" class="pin" data-pin-id="1269"/>
              <text x="181" y="73" class="pin-label" text-anchor="start">SDA</text><circle cx="173" cy="78" r="3" class="pin" data-pin-id="1267"/>
              <text x="181" y="81" class="pin-label" text-anchor="start">CSB</text><circle cx="173" cy="86" r="3" class="pin" data-pin-id="1268"/>
              <text x="181" y="89" class="pin-label" text-anchor="start">SDO</text><circle cx="247" cy="70" r="3" class="pin" data-pin-id="1108"/>
              <text x="239" y="73" class="pin-label" text-anchor="end">A0</text><circle cx="247" cy="78" r="3" class="pin" data-pin-id="1113"/>
              <text x="239" y="81" class="pin-label" text-anchor="end">A1</text><circle cx="247" cy="86" r="3" class="pin" data-pin-id="1150"/>
              <text x="239" y="89" class="pin-label" text-anchor="end">A2</text><circle cx="247" cy="94" r="3" class="pin" data-pin-id="1114"/>
              <text x="239" y="97" class="pin-label" text-anchor="end">A3</text><circle cx="247" cy="102" r="3" class="pin" data-pin-id="1109"/>
              <text x="239" y="105" class="pin-label" text-anchor="end">A4/SDA</text><circle cx="247" cy="110" r="3" class="pin" data-pin-id="1110"/>
              <text x="239" y="113" class="pin-label" text-anchor="end">A5/SCL</text><circle cx="247" cy="118" r="3" class="pin" data-pin-id="1111"/>
              <text x="239" y="121" class="pin-label" text-anchor="end">ICSP MISO</text><circle cx="247" cy="126" r="3" class="pin" data-pin-id="1112"/>
              <text x="239" y="129" class="pin-label" text-anchor="end">5V</text><circle cx="247" cy="134" r="3" class="pin" data-pin-id="1151"/>
              <text x="239" y="137" class="pin-label" text-anchor="end">ICSP SCK</text><circle cx="247" cy="142" r="3" class="pin" data-pin-id="1149"/>
              <text x="239" y="145" class="pin-label" text-anchor="end">ICSP MOSI</text><circle cx="247" cy="150" r="3" class="pin" data-pin-id="1115"/>
              <text x="239" y="153" class="pin-label" text-anchor="end">RESET</text><circle cx="247" cy="158" r="3" class="pin" data-pin-id="1116"/>
              <text x="239" y="161" class="pin-label" text-anchor="end">GND</text><circle cx="247" cy="166" r="3" class="pin" data-pin-id="1117"/>
              <text x="239" y="169" class="pin-label" text-anchor="end">ICSP2 MISO</text><circle cx="247" cy="174" r="3" class="pin" data-pin-id="1118"/>
              <text x="239" y="177" class="pin-label" text-anchor="end">5V</text><circle cx="247" cy="182" r="3" class="pin" data-pin-id="1119"/>
              <text x="239" y="185" class="pin-label" text-anchor="end">ICSP2 SCK</text><circle cx="247" cy="190" r="3" class="pin" data-pin-id="1120"/>
              <text x="239" y="193" class="pin-label" text-anchor="end">ICSP2 MOSI</text><circle cx="247" cy="198" r="3" class="pin" data-pin-id="1121"/>
              <text x="239" y="201" class="pin-label" text-anchor="end">RESET2</text><circle cx="247" cy="206" r="3" class="pin" data-pin-id="1122"/>
              <text x="239" y="209" class="pin-label" text-anchor="end">GND</text><circle cx="247" cy="214" r="3" class="pin" data-pin-id="1123"/>
              <text x="239" y="217" class="pin-label" text-anchor="end">D8</text><circle cx="247" cy="222" r="3" class="pin" data-pin-id="1124"/>
              <text x="239" y="225" class="pin-label" text-anchor="end">D9 PWM</text><circle cx="247" cy="230" r="3" class="pin" data-pin-id="1125"/>
              <text x="239" y="233" class="pin-label" text-anchor="end">D10 PWM/SS</text><circle cx="247" cy="238" r="3" class="pin" data-pin-id="1126"/>
              <text x="239" y="241" class="pin-label" text-anchor="end">D11 PWM/MOSI</text><circle cx="373" cy="70" r="3" class="pin" data-pin-id="1127"/>
              <text x="381" y="73" class="pin-label" text-anchor="start">D12/MISO</text><circle cx="373" cy="78" r="3" class="pin" data-pin-id="1128"/>
              <text x="381" y="81" class="pin-label" text-anchor="start">D13/SCK</text><circle cx="373" cy="86" r="3" class="pin" data-pin-id="1129"/>
              <text x="381" y="89" class="pin-label" text-anchor="start">GND</text><circle cx="373" cy="94" r="3" class="pin" data-pin-id="1130"/>
              <text x="381" y="97" class="pin-label" text-anchor="start">AREF</text><circle cx="373" cy="102" r="3" class="pin" data-pin-id="1131"/>
              <text x="381" y="105" class="pin-label" text-anchor="start">A4/SDA</text><circle cx="373" cy="110" r="3" class="pin" data-pin-id="1132"/>
              <text x="381" y="113" class="pin-label" text-anchor="start">A5/SCL</text><circle cx="373" cy="118" r="3" class="pin" data-pin-id="1133"/>
              <text x="381" y="121" class="pin-label" text-anchor="start">D0/RX</text><circle cx="373" cy="126" r="3" class="pin" data-pin-id="1134"/>
              <text x="381" y="129" class="pin-label" text-anchor="start">D1/TX</text><circle cx="373" cy="134" r="3" class="pin" data-pin-id="1135"/>
              <text x="381" y="137" class="pin-label" text-anchor="start">D2</text><circle cx="373" cy="142" r="3" class="pin" data-pin-id="1136"/>
              <text x="381" y="145" class="pin-label" text-anchor="start">D3 PWM</text><circle cx="373" cy="150" r="3" class="pin" data-pin-id="1137"/>
              <text x="381" y="153" class="pin-label" text-anchor="start">D4</text><circle cx="373" cy="158" r="3" class="pin" data-pin-id="1138"/>
              <text x="381" y="161" class="pin-label" text-anchor="start">D5 PWM</text><circle cx="373" cy="166" r="3" class="pin" data-pin-id="1139"/>
              <text x="381" y="169" class="pin-label" text-anchor="start">D6 PWM</text><circle cx="373" cy="174" r="3" class="pin" data-pin-id="1140"/>
              <text x="381" y="177" class="pin-label" text-anchor="start">D7</text><circle cx="373" cy="182" r="3" class="pin" data-pin-id="1141"/>
              <text x="381" y="185" class="pin-label" text-anchor="start">ioref</text><circle cx="373" cy="190" r="3" class="pin" data-pin-id="1142"/>
              <text x="381" y="193" class="pin-label" text-anchor="start">RESET</text><circle cx="373" cy="198" r="3" class="pin" data-pin-id="1143"/>
              <text x="381" y="201" class="pin-label" text-anchor="start">3V3</text><circle cx="373" cy="206" r="3" class="pin" data-pin-id="1144"/>
              <text x="381" y="209" class="pin-label" text-anchor="start">5V</text><circle cx="373" cy="214" r="3" class="pin" data-pin-id="1145"/>
              <text x="381" y="217" class="pin-label" text-anchor="start">GND</text><circle cx="373" cy="222" r="3" class="pin" data-pin-id="1146"/>
              <text x="381" y="225" class="pin-label" text-anchor="start">GND</text><circle cx="373" cy="230" r="3" class="pin" data-pin-id="1147"/>
              <text x="381" y="233" class="pin-label" text-anchor="start">VIN</text><circle cx="373" cy="238" r="3" class="pin" data-pin-id="1148"/>
              <text x="381" y="241" class="pin-label" text-anchor="start">N/C</text><path d="M 47 70 Q 147 50 247 126" class="wire" stroke-dasharray="5,5"/>
              <text x="147" y="45" class="connection-label">VCC → 5V</text><path d="M 47 78 Q 147 58 247 206" class="wire" stroke-dasharray="5,5"/>
              <text x="147" y="53" class="connection-label">GND → GND</text><path d="M 47 86 Q 147 66 247 110" class="wire" stroke-dasharray="5,5"/>
              <text x="147" y="61" class="connection-label">SCL → A5/SCL</text><path d="M 173 70 Q 210 50 247 102" class="wire" stroke-dasharray="5,5"/>
              <text x="210" y="45" class="connection-label">SDA → A4/SDA</text></svg>